<?xml version="1.0" encoding="utf-8"?>
<!-- Generator: Adobe Illustrator 27.8.1, SVG Export Plug-In . SVG Version: 6.00 Build 0)  -->
<svg version="1.1" id="Layer_1" xmlns="http://www.w3.org/2000/svg" xmlns:xlink="http://www.w3.org/1999/xlink" x="0px" y="0px"
	 viewBox="0 0 446.7 111.8" style="enable-background:new 0 0 446.7 111.8;" xml:space="preserve">
<style type="text/css">
	.st0{fill:#2A3C48;}
	.st1{fill:#003952;}
</style>
<g id="Layer_1_00000074435277277544154800000014328692772105767308_">
	<path class="st0" d="M388.5,993.2c1.3,1.3,2,3.3,2,5.8v10.8h-1.8v-10.7c0-2.1-0.5-3.7-1.6-4.8c-1.1-1.1-2.5-1.6-4.4-1.6
		c-2.2,0-3.9,0.7-5.2,2c-1.3,1.3-1.9,3.1-1.9,5.3v9.9h-1.8v-18.5h1.7v4c0.6-1.3,1.6-2.3,2.9-3.1c1.3-0.7,2.8-1.1,4.5-1.1
		C385.2,991.2,387.1,991.8,388.5,993.2L388.5,993.2z M399.1,1008.8c-1.4-0.8-2.5-1.9-3.3-3.4c-0.8-1.4-1.2-3-1.2-4.8
		s0.4-3.4,1.2-4.8c0.8-1.4,1.9-2.6,3.3-3.4c1.4-0.8,3-1.2,4.7-1.2c1.7,0,3.3,0.4,4.7,1.2s2.5,1.9,3.3,3.4c0.8,1.4,1.2,3,1.2,4.8
		s-0.4,3.4-1.2,4.8c-0.8,1.4-1.9,2.6-3.3,3.4c-1.4,0.8-3,1.2-4.7,1.2C402.1,1010,400.5,1009.6,399.1,1008.8z M407.6,1007.4
		c1.1-0.7,2-1.6,2.7-2.8c0.7-1.2,1-2.5,1-4s-0.3-2.9-1-4c-0.7-1.2-1.5-2.1-2.7-2.8c-1.1-0.7-2.4-1-3.8-1c-1.4,0-2.7,0.3-3.8,1
		s-2,1.6-2.7,2.8c-0.7,1.2-1,2.5-1,4s0.3,2.9,1,4c0.7,1.2,1.5,2.1,2.7,2.8c1.1,0.7,2.4,1,3.8,1
		C405.2,1008.4,406.5,1008,407.6,1007.4z M423,992.2c1.2-0.7,2.7-1.1,4.4-1.1v1.7H427c-2.1,0-3.7,0.6-4.8,1.9
		c-1.2,1.3-1.7,3.1-1.7,5.4v9.7h-1.8v-18.5h1.7v4C420.9,994,421.8,993,423,992.2L423,992.2z M443.8,1008.7c-0.5,0.4-1,0.8-1.7,1
		c-0.7,0.2-1.4,0.3-2.1,0.3c-1.6,0-2.9-0.4-3.7-1.3c-0.9-0.9-1.3-2.1-1.3-3.7v-12.1h-3.4v-1.5h3.4v-4h1.8v4h5.9v1.5h-5.9v11.9
		c0,1.2,0.3,2.1,0.9,2.8c0.6,0.6,1.4,0.9,2.6,0.9c1.2,0,2.1-0.3,2.9-1L443.8,1008.7L443.8,1008.7z M463.2,993.2c1.3,1.3,2,3.3,2,5.8
		v10.8h-1.8v-10.7c0-2.1-0.5-3.7-1.6-4.8s-2.5-1.6-4.4-1.6c-2.2,0-3.9,0.7-5.2,2c-1.3,1.3-1.9,3.1-1.9,5.3v9.9h-1.8v-26.4h1.8v11.7
		c0.6-1.3,1.6-2.3,2.8-3c1.3-0.7,2.7-1,4.4-1C460,991.2,461.9,991.8,463.2,993.2z M501,990.7l-6.9,19.1h-5.3l-4.3-11.9l-4.4,11.9
		h-5.3l-6.9-19.1h5.2l4.5,12.9l4.7-12.9h4.7l4.5,12.9l4.7-12.9H501z M521.8,1001.8h-14.5c0.3,1.2,0.9,2.1,1.8,2.8c1,0.7,2.2,1,3.6,1
		c1,0,1.9-0.1,2.6-0.4c0.8-0.3,1.5-0.8,2.1-1.4l2.9,3.2c-1.8,2.1-4.4,3.1-7.9,3.1c-2.2,0-4.1-0.4-5.7-1.3c-1.7-0.8-2.9-2-3.8-3.5
		c-0.9-1.5-1.3-3.2-1.3-5.1c0-1.9,0.4-3.6,1.3-5.1c0.9-1.5,2.1-2.7,3.7-3.5s3.3-1.3,5.2-1.3c1.9,0,3.6,0.4,5.1,1.2s2.7,2,3.6,3.5
		s1.3,3.2,1.3,5.2C521.9,1000.4,521.8,1000.9,521.8,1001.8L521.8,1001.8z M508.8,995.7c-0.9,0.7-1.4,1.7-1.6,2.9h9.4
		c-0.2-1.2-0.7-2.2-1.6-2.9c-0.9-0.7-1.9-1.1-3.1-1.1S509.5,995,508.8,995.7L508.8,995.7z M527.2,1009.5c-1.5-0.4-2.7-0.9-3.6-1.5
		l1.8-4c0.9,0.5,1.9,1,3.1,1.3s2.4,0.5,3.6,0.5c2.3,0,3.5-0.6,3.5-1.7c0-0.5-0.3-0.9-1-1.2c-0.6-0.2-1.6-0.4-2.9-0.6
		c-1.6-0.2-2.9-0.5-3.9-0.8s-1.9-0.9-2.6-1.6c-0.7-0.8-1.1-1.9-1.1-3.3c0-1.2,0.3-2.3,1-3.2c0.7-0.9,1.7-1.7,3.1-2.2
		c1.3-0.5,2.9-0.8,4.7-0.8c1.3,0,2.7,0.1,4,0.4c1.3,0.3,2.4,0.7,3.3,1.2l-1.8,3.9c-1.7-0.9-3.5-1.4-5.5-1.4c-1.2,0-2.1,0.2-2.7,0.5
		s-0.9,0.8-0.9,1.3c0,0.6,0.3,1,1,1.2c0.6,0.2,1.7,0.5,3.1,0.7c1.6,0.3,2.8,0.5,3.8,0.8s1.9,0.8,2.6,1.6s1.1,1.9,1.1,3.3
		c0,1.2-0.4,2.2-1.1,3.2c-0.7,0.9-1.7,1.6-3.1,2.1c-1.4,0.5-3,0.8-4.8,0.8C530.4,1010.1,528.8,1009.9,527.2,1009.5L527.2,1009.5z
		 M558.1,1008.9c-0.5,0.4-1.2,0.7-2,0.9s-1.6,0.3-2.5,0.3c-2.3,0-4-0.6-5.3-1.7c-1.2-1.2-1.9-2.9-1.9-5.1v-7.9h-2.9v-4.3h2.9v-4.7
		h5.5v4.7h4.8v4.3H552v7.8c0,0.8,0.2,1.4,0.6,1.9c0.4,0.4,1,0.7,1.8,0.7c0.9,0,1.6-0.2,2.2-0.7L558.1,1008.9L558.1,1008.9z
		 M376.4,1022h-1v1.7h-1.8v-6.4h2.9c0.6,0,1.1,0.1,1.5,0.3s0.8,0.5,1,0.8c0.2,0.4,0.3,0.8,0.3,1.3s-0.1,0.9-0.3,1.2
		c-0.2,0.3-0.5,0.6-0.9,0.8l1.4,2h-1.9L376.4,1022z M377.4,1018.9c-0.2-0.2-0.5-0.2-0.8-0.2h-1v1.9h1c0.4,0,0.7-0.1,0.8-0.2
		c0.2-0.2,0.3-0.4,0.3-0.7S377.5,1019.1,377.4,1018.9L377.4,1018.9z M387.4,1022.3v1.4h-5.2v-6.4h5v1.4H384v1.1h2.9v1.4H384v1.2
		L387.4,1022.3L387.4,1022.3z M394.5,1020.3h1.6v2.7c-0.4,0.3-0.8,0.5-1.3,0.6s-1,0.2-1.4,0.2c-0.7,0-1.3-0.1-1.8-0.4
		s-1-0.7-1.3-1.2c-0.3-0.5-0.5-1.1-0.5-1.7s0.2-1.2,0.5-1.7c0.3-0.5,0.7-0.9,1.3-1.2c0.5-0.3,1.2-0.4,1.8-0.4s1.1,0.1,1.6,0.3
		s0.9,0.5,1.2,0.9l-1.2,1c-0.4-0.5-1-0.7-1.6-0.7s-1,0.2-1.3,0.5c-0.3,0.3-0.5,0.8-0.5,1.3c0,0.4,0.1,0.7,0.2,0.9
		c0.2,0.3,0.4,0.5,0.6,0.7c0.2,0.2,0.6,0.2,0.9,0.2c0.3,0,0.7-0.1,1-0.2v-1.8L394.5,1020.3z M399.1,1017.3h1.8v6.4h-1.8V1017.3z
		 M404.8,1023.6c-0.5-0.1-0.9-0.3-1.2-0.5l0.6-1.3c0.3,0.2,0.6,0.3,1,0.5c0.4,0.1,0.8,0.2,1.1,0.2c0.7,0,1-0.2,1-0.5
		c0-0.2-0.1-0.3-0.3-0.4s-0.5-0.2-1-0.3c-0.5-0.1-0.9-0.2-1.2-0.3c-0.3-0.1-0.6-0.3-0.8-0.6c-0.2-0.3-0.3-0.6-0.3-1.1
		c0-0.4,0.1-0.7,0.3-1.1c0.2-0.3,0.5-0.6,1-0.7c0.4-0.2,0.9-0.3,1.6-0.3c0.4,0,0.8,0,1.2,0.1s0.8,0.2,1.1,0.4l-0.6,1.3
		c-0.6-0.3-1.2-0.5-1.8-0.5c-0.4,0-0.6,0.1-0.8,0.2c-0.2,0.1-0.2,0.2-0.2,0.4s0.1,0.3,0.3,0.4c0.2,0.1,0.5,0.2,0.9,0.3
		c0.5,0.1,0.9,0.2,1.2,0.3s0.6,0.3,0.8,0.6c0.2,0.3,0.4,0.6,0.4,1.1c0,0.4-0.1,0.7-0.3,1c-0.2,0.3-0.5,0.6-1,0.7
		c-0.4,0.2-0.9,0.3-1.6,0.3C405.8,1023.8,405.3,1023.7,404.8,1023.6L404.8,1023.6z M413.1,1018.7h-2v-1.4h5.7v1.4h-2v5H413v-5H413.1
		z M424.5,1022.3v1.4h-5.2v-6.4h5v1.4h-3.2v1.1h2.9v1.4h-2.9v1.2L424.5,1022.3L424.5,1022.3z M430.2,1022h-1v1.7h-1.9v-6.4h2.9
		c0.6,0,1.1,0.1,1.5,0.3s0.8,0.5,1,0.8c0.2,0.4,0.3,0.8,0.3,1.3s-0.1,0.9-0.3,1.2c-0.2,0.3-0.5,0.6-0.9,0.8l1.4,2h-1.9L430.2,1022
		L430.2,1022z M431,1018.9c-0.2-0.2-0.5-0.2-0.8-0.2h-1v1.9h1c0.4,0,0.7-0.1,0.8-0.2c0.2-0.2,0.3-0.4,0.3-0.7
		S431.2,1019.1,431,1018.9L431,1018.9z M441.1,1022.3v1.4h-5.2v-6.4h5v1.4h-3.2v1.1h2.9v1.4h-2.9v1.2L441.1,1022.3L441.1,1022.3z
		 M444,1017.3h3c0.7,0,1.3,0.1,1.9,0.4c0.5,0.3,1,0.6,1.3,1.1c0.3,0.5,0.4,1,0.4,1.7s-0.1,1.2-0.4,1.7s-0.7,0.9-1.3,1.1
		c-0.5,0.3-1.2,0.4-1.9,0.4h-3V1017.3L444,1017.3z M446.9,1022.2c0.5,0,1-0.2,1.3-0.5c0.3-0.3,0.5-0.7,0.5-1.3c0-0.5-0.2-1-0.5-1.3
		c-0.3-0.3-0.8-0.5-1.3-0.5h-1.1v3.5h1.1V1022.2z M462.2,1022.4h-2.7l-0.5,1.2h-1.9l2.8-6.4h1.8l2.8,6.4h-1.9L462.2,1022.4
		L462.2,1022.4z M461.6,1021.1l-0.8-2.1l-0.8,2.1H461.6z M471.1,1020.3h1.6v2.7c-0.4,0.3-0.8,0.5-1.3,0.6s-1,0.2-1.4,0.2
		c-0.7,0-1.3-0.1-1.8-0.4s-1-0.7-1.3-1.2c-0.3-0.5-0.5-1.1-0.5-1.7s0.2-1.2,0.5-1.7c0.3-0.5,0.7-0.9,1.3-1.2
		c0.5-0.3,1.2-0.4,1.8-0.4s1.1,0.1,1.6,0.3s0.9,0.5,1.2,0.9l-1.2,1c-0.4-0.5-1-0.7-1.6-0.7s-1,0.2-1.3,0.5c-0.3,0.3-0.5,0.8-0.5,1.3
		c0,0.4,0.1,0.7,0.2,0.9c0.2,0.3,0.4,0.5,0.6,0.7c0.3,0.2,0.6,0.2,0.9,0.2s0.7-0.1,1-0.2v-1.8H471.1z M480.9,1022.3v1.4h-5.2v-6.4h5
		v1.4h-3.2v1.1h2.9v1.4h-2.9v1.2L480.9,1022.3L480.9,1022.3z M489.8,1017.3v6.4h-1.5l-2.8-3.4v3.4h-1.8v-6.4h1.5l2.8,3.4v-3.4H489.8
		L489.8,1017.3z M494.3,1018.7h-2v-1.4h5.7v1.4h-2v5h-1.7L494.3,1018.7L494.3,1018.7z"/>
</g>
<path class="st1" d="M39.6,23.2c3.2,3.2,4.9,7.9,4.9,14v26h-4.3V37.6c0-5-1.3-8.8-3.8-11.4s-6.1-3.9-10.6-3.9
	c-5.2,0-9.3,1.6-12.4,4.7c-3,3.1-4.5,7.3-4.5,12.6v23.7H4.7V18.7h4.1v9.6c1.5-3.1,3.8-5.6,6.9-7.3c3-1.8,6.6-2.6,10.8-2.6
	C32,18.4,36.4,20,39.6,23.2z M65.2,60.7c-3.4-1.9-6-4.6-8-8.1c-1.9-3.4-2.9-7.3-2.9-11.6s1-8.2,2.9-11.6s4.6-6.1,8-8.1
	c3.4-1.9,7.2-2.9,11.4-2.9s8,1,11.4,2.9s6,4.6,8,8.1c1.9,3.4,2.9,7.3,2.9,11.6s-1,8.2-2.9,11.6c-1.9,3.4-4.6,6.1-8,8.1
	c-3.5,1.9-7.3,2.8-11.5,2.8S68.5,62.6,65.2,60.7z M85.7,57.3c2.7-1.6,4.8-3.8,6.4-6.6s2.3-6.1,2.3-9.7c0-3.6-0.8-6.9-2.3-9.7
	c-1.6-2.8-3.7-5.1-6.4-6.6c-2.7-1.6-5.8-2.4-9.2-2.4c-3.4,0-6.5,0.8-9.2,2.4s-4.8,3.8-6.4,6.6s-2.3,6.1-2.3,9.7
	c0,3.6,0.8,6.9,2.3,9.7c1.6,2.8,3.7,5.1,6.4,6.6c2.7,1.6,5.8,2.4,9.2,2.4C79.9,59.7,83,58.9,85.7,57.3z M122.5,21
	c2.9-1.7,6.4-2.6,10.6-2.6v4.2l-1-0.1c-4.9,0-8.8,1.5-11.6,4.6c-2.8,3.1-4.2,7.4-4.2,12.9v23.2H112V18.7h4.1v9.7
	C117.4,25.2,119.6,22.7,122.5,21z M172.3,60.4c-1.1,1-2.4,1.8-4,2.3s-3.3,0.8-5.1,0.8c-3.9,0-6.8-1.1-8.9-3.2
	c-2.1-2.1-3.2-5.1-3.2-8.9v-29h-8.2v-3.7h8.2V9h4.3v9.7h14.1v3.7h-14.1V51c0,2.9,0.7,5.1,2.1,6.6c1.4,1.5,3.5,2.3,6.2,2.3
	c2.8,0,5.1-0.8,6.9-2.5C170.6,57.4,172.3,60.4,172.3,60.4z M219.1,23.2c3.2,3.2,4.9,7.9,4.9,14v26h-4.3V37.6c0-5-1.3-8.8-3.8-11.4
	s-6.1-3.9-10.6-3.9c-5.2,0-9.3,1.6-12.4,4.7c-3,3.1-4.5,7.3-4.5,12.6v23.7h-4.3V0h4.3v28c1.5-3.1,3.8-5.4,6.8-7.1s6.6-2.5,10.7-2.5
	C211.5,18.4,215.9,20,219.1,23.2L219.1,23.2z M309.7,17.4l-16.6,45.9h-12.8L270,34.8l-10.7,28.5h-12.8L230,17.4h12.5l10.8,31
	l11.2-31h11.3l10.9,31l11.2-31H309.7z M359.3,44h-34.7c0.6,2.8,2.1,5.1,4.4,6.7c2.3,1.6,5.2,2.5,8.7,2.5c2.4,0,4.5-0.4,6.3-1.1
	c1.8-0.7,3.6-1.8,5.2-3.4l7.1,7.7c-4.3,4.9-10.6,7.4-18.9,7.4c-5.2,0-9.7-1-13.7-3s-7-4.8-9.2-8.4c-2.2-3.6-3.2-7.6-3.2-12.2
	c0-4.5,1.1-8.5,3.2-12.1s5.1-6.4,8.8-8.4c3.7-2,7.9-3,12.5-3c4.5,0,8.6,1,12.2,2.9s6.5,4.7,8.6,8.3c2.1,3.6,3.1,7.8,3.1,12.6
	C359.6,40.6,359.5,41.8,359.3,44z M328.2,29.3c-2,1.7-3.3,4-3.8,7H347c-0.5-2.9-1.7-5.2-3.8-6.9c-2-1.7-4.5-2.6-7.5-2.6
	C332.8,26.7,330.3,27.6,328.2,29.3L328.2,29.3z M372.7,62.5c-3.6-0.9-6.5-2.1-8.7-3.5l4.4-9.5c2,1.3,4.5,2.4,7.4,3.2
	s5.7,1.2,8.5,1.2c5.6,0,8.4-1.4,8.4-4.2c0-1.3-0.8-2.2-2.3-2.8s-3.9-1.1-7.1-1.4c-3.8-0.6-6.8-1.2-9.3-2c-2.4-0.7-4.6-2-6.4-3.9
	s-2.7-4.5-2.7-8c0-2.9,0.8-5.5,2.5-7.7s4.1-4,7.3-5.2c3.2-1.2,7-1.9,11.4-1.9c3.2,0,6.5,0.4,9.7,1.1s5.9,1.7,8,2.9l-4.4,9.5
	c-4-2.3-8.4-3.4-13.2-3.4c-2.8,0-5,0.4-6.4,1.2s-2.1,1.8-2.1,3.1c0,1.4,0.8,2.4,2.3,3s4,1.1,7.3,1.6c3.8,0.6,6.8,1.3,9.2,2
	c2.4,0.7,4.5,2,6.2,3.9c1.8,1.9,2.6,4.5,2.6,7.8c0,2.8-0.9,5.4-2.6,7.6c-1.7,2.2-4.2,3.9-7.5,5.2c-3.3,1.2-7.1,1.8-11.6,1.8
	C380.1,63.9,376.3,63.4,372.7,62.5L372.7,62.5z M446.7,61c-1.3,1-2.9,1.7-4.8,2.2s-3.9,0.7-6,0.7c-5.5,0-9.7-1.4-12.7-4.2
	c-3-2.8-4.5-6.9-4.5-12.3V28.6h-7V18.4h7.1V7.2h13.3v11.2h11.4v10.2h-11.4v18.7c0,1.9,0.5,3.4,1.5,4.5s2.4,1.6,4.2,1.6
	c2.1,0,3.9-0.6,5.4-1.7L446.7,61z"/>
<g>
	<path class="st1" d="M26.9,83.5c0,6.2-4.4,9.8-11.7,9.8H6.5v9.9H5.1V73.7h10.2C22.6,73.7,26.9,77.3,26.9,83.5z M25.6,83.5
		c0-5.4-3.6-8.4-10.2-8.4H6.5v16.9h8.8C22,91.9,25.6,88.9,25.6,83.5z"/>
	<path class="st1" d="M51,94.5H33.5l-3.9,8.6H28l13.6-29.3h1.4l13.6,29.3H55L51,94.5z M50.5,93.3l-8.2-17.9L34,93.3H50.5z"/>
	<path class="st1" d="M82.8,103.1L75.6,93c-1,0.2-2.1,0.3-3.2,0.3h-8.8v9.9h-1.4V73.7h10.2c7.3,0,11.7,3.6,11.7,9.7
		c0,4.7-2.6,8-7,9.2l7.5,10.4H82.8z M72.5,91.9c6.6,0,10.2-3.1,10.2-8.5c0-5.4-3.6-8.4-10.2-8.4h-8.8v16.9H72.5z"/>
	<path class="st1" d="M97.5,75H86.7v-1.3h22.9V75H98.9v28h-1.4V75z"/>
	<path class="st1" d="M138.6,73.7v29.3h-1.2l-20.8-26.7v26.7h-1.4V73.7h1.2l20.8,26.7V73.7H138.6z"/>
	<path class="st1" d="M169.1,101.8v1.3h-19.8V73.7h19.2V75h-17.8v12.5h15.9v1.3h-15.9v13H169.1z"/>
	<path class="st1" d="M197.9,103.1L190.7,93c-1,0.2-2.1,0.3-3.2,0.3h-8.8v9.9h-1.4V73.7h10.2c7.3,0,11.7,3.6,11.7,9.7
		c0,4.7-2.6,8-7,9.2l7.5,10.4H197.9z M187.6,91.9c6.6,0,10.2-3.1,10.2-8.5c0-5.4-3.6-8.4-10.2-8.4h-8.8v16.9H187.6z"/>
	<path class="st1" d="M204.3,99.2l0.8-1c1.9,2.1,5.6,3.8,9.7,3.8c6.2,0,8.9-2.8,8.9-6.2c0-9.4-18.5-3.8-18.5-14.7
		c0-3.9,3-7.5,10-7.5c3.2,0,6.5,1,8.7,2.7l-0.6,1.1c-2.3-1.7-5.4-2.6-8-2.6c-6,0-8.7,2.8-8.7,6.3c0,9.4,18.5,4,18.5,14.6
		c0,4-3.1,7.5-10.2,7.5C210.5,103.2,206.4,101.6,204.3,99.2z"/>
</g>
</svg>
